<svg width="51" height="113" viewBox="0 0 51 113" fill="none" xmlns="http://www.w3.org/2000/svg">
<path d="M39.2378 10.7254C28.304 9.78521 17.3516 10.2244 6.40544 10.4841C2.99791 9.86563 -0.0571322 8.6286 0.487084 4.47834C1.0313 0.328076 4.56871 0.179632 7.85256 0.148706C19.6955 0.148706 31.5384 0.210553 43.3813 0.105405C47.401 0.0682941 49.9242 1.5713 50.6663 5.63496C50.588 36.899 50.5097 68.1631 50.4313 99.4271C50.4313 101.487 50.4313 103.54 50.4313 105.612C50.4313 109.212 49.2872 112.088 45.0943 112.02C41.2786 111.952 40.2149 109.255 40.1778 105.928C40.1778 104.103 40.1778 102.272 40.1778 100.448C40.1778 73.5174 40.1778 46.5871 40.1778 19.6568C40.1778 16.9291 39.8995 14.2076 39.7511 11.4861L39.8624 10.9171L39.2378 10.7254Z" fill="#383832"/>
<path d="M11.9094 19.7495C15.3169 19.9351 18.7121 20.368 22.1258 20.2505C28.0627 20.0031 30.2211 22.7617 30.1654 28.5016C30.0417 53.8608 30.1036 79.183 30.1097 104.524C30.1097 107.573 30.0046 110.542 26.7022 112.094C20.5179 112.465 19.8315 108.563 19.8315 103.689C19.8315 84.1373 19.6954 64.5921 19.6026 45.0407C19.8129 29.0397 22.7319 30.2643 5.76222 31.1364C2.82469 29.8994 -0.384947 28.6624 0.530326 24.574C1.38994 20.733 4.60577 20.3062 7.92054 20.2443C9.2583 20.1535 10.59 19.9883 11.9094 19.7495V19.7495Z" fill="white"/>
</svg>
