<svg width="83" height="110" viewBox="0 0 83 110" fill="none" xmlns="http://www.w3.org/2000/svg">
<path d="M4.94104 80.2614C-0.334155 78.5481 -0.476442 75.1029 1.33555 70.5877C9.87398 49.2365 18.3444 27.8563 26.7468 6.44735C27.9837 3.35476 29.0783 0.0518694 33.3331 0.880684C37.2416 1.63528 37.1982 4.93816 37.2539 8.00601C28.3918 27.0069 21.6757 46.8799 13.6361 66.221C12.0096 70.1362 14.9224 70.0125 17.3467 70.0311C25.5594 70.0929 33.7784 70.2413 41.9849 70.0311C47.7177 69.8764 50.3831 72.134 50.2471 78.0161C50.0554 86.2301 50.2471 94.4502 50.1419 102.664C50.0986 106.041 49.5977 109.61 45.1017 109.468C40.816 109.326 40.1543 105.973 40.1543 102.479C40.1543 96.6397 39.975 90.7947 40.21 84.9621C40.3584 81.3128 39.0721 79.9212 35.4048 80.0139C25.244 80.1809 15.0894 80.1809 4.94104 80.2614Z" fill="#F2F8F9"/>
<path d="M43.766 14.9148C45.0028 11.9707 46.3695 9.04506 47.5507 6.06998C48.6144 3.3918 49.6843 0.763099 53.1166 0.719803C56.351 0.676506 57.3652 3.13203 58.2805 5.61229C53.0857 18.861 47.928 32.122 42.6713 45.3459C41.5643 48.1292 40.816 50.1642 45.145 50.2941C48.0764 50.3868 50.0182 52.3785 49.7585 55.4401C49.474 58.8544 46.988 59.8378 43.834 60.0976C28.3733 61.3656 26.79 59.2873 32.2693 45.1171C36.2087 35.0847 39.9564 24.9905 43.766 14.9148Z" fill="#383832"/>
<path d="M59.6224 89.4587C59.6224 85.1291 59.6657 80.7995 59.6224 76.5131C59.5791 72.2268 61.7622 70.1548 65.9428 70.1115C69.6101 70.0744 73.2773 70.0063 76.9384 70.1857C79.8018 70.3279 82.0714 71.8 82.2075 74.8493C82.3435 77.8986 80.1605 80.082 77.3652 79.7604C68.9113 78.7831 69.1339 84.0343 69.4122 89.7804C69.6039 93.6585 69.4679 97.549 69.4122 101.433C69.4122 105.188 69.4925 109.474 64.2606 109.406C59.3812 109.35 59.5791 105.268 59.5668 101.755C59.5668 97.6541 59.5668 93.5533 59.5668 89.4587H59.6224Z" fill="#383832"/>
<path d="M59.7276 46.3417C59.7276 43.5522 59.5854 40.775 59.7647 37.9731C59.9441 35.1712 61.7499 33.6868 64.4462 33.6435C67.1425 33.6002 68.8679 35.1032 69.2204 37.8865C69.384 38.9483 69.4276 40.0251 69.3504 41.0966C68.7319 46.9231 69.3503 51.3578 77.1734 50.3744C77.829 50.2905 78.4951 50.3522 79.1242 50.5552C79.7532 50.7581 80.3298 51.0972 80.8128 51.5485C81.2959 51.9997 81.6736 52.5519 81.9189 53.1657C82.1642 53.7796 82.2711 54.44 82.2322 55.0999C82.2322 58.1121 80.0244 59.7511 77.1858 59.9491C73.5494 60.2027 69.8884 60.0233 66.2397 60.0913C61.7004 60.1717 59.4369 58.0317 59.5792 53.4423C59.6348 51.0795 59.5792 48.7168 59.5792 46.354L59.7276 46.3417Z" fill="#F2F8F9"/>
</svg>
