<svg width="76" height="110" viewBox="0 0 76 110" fill="none" xmlns="http://www.w3.org/2000/svg">
<path d="M18.364 23.2255C24.4988 22.1802 30.3862 19.8917 36.7808 20.1329C50.0151 20.6401 56.4715 30.3323 50.8562 42.3315C45.816 53.0999 38.2155 62.3777 31.8581 72.3915C26.2427 81.2673 20.411 90.0008 13.8371 100.083H40.7511C50.0275 100.083 59.3039 100.083 68.5803 100.083C72.1857 100.083 75.9087 99.9898 75.7726 105.099C75.6428 109.855 72.0621 109.534 68.7597 109.534C47.2013 109.534 25.6449 109.573 4.09068 109.651C-0.658845 107.387 -0.516627 104.301 2.13643 100.299C11.0047 86.8896 19.7307 73.3874 28.4939 59.9036C29.6441 58.1285 31.2026 56.5513 31.4561 54.2937C35.4326 50.3042 37.8754 45.2324 40.9984 40.643C42.5878 38.305 43.8927 35.6639 42.3281 32.8373C40.5532 29.621 37.3064 30.0849 34.3194 30.1344C27.727 30.2333 22.0127 33.5795 15.8408 35.2371C10.1636 29.9612 10.4481 28.6066 18.364 23.2255Z" fill="#383832"/>
<path d="M71.8395 20.9679C76.1685 34.4764 73.7813 46.8406 65.6552 58.3388C62.1858 63.287 58.9576 68.365 55.7603 73.4864C54.6966 75.1996 52.1673 76.8944 53.5711 79.053C54.808 80.989 57.5414 79.9251 59.607 80.0055C63.0454 80.1416 66.4962 80.0056 69.9347 80.0921C72.8722 80.1664 75.0058 81.4776 75.1171 84.6506C75.2408 88.1267 73.1072 89.7905 69.8543 89.8214C61.0355 89.908 52.2044 90.075 43.3918 89.772C37.5167 89.5617 35.9706 85.7516 39.4462 80.3272C45.8222 70.3505 52.4332 60.5346 58.8092 50.5455C60.8995 47.2921 62.798 43.9274 63.4969 39.9936C66.5148 23.0462 57.3126 11.2139 40.1326 9.98925C30.6954 9.32125 21.7653 11.449 13.0022 14.6343C10.6274 13.3973 8.52477 12.0056 8.94531 8.77696C9.32255 5.9194 11.419 4.98544 13.7196 4.1257C26.4221 -0.680185 39.3287 -1.29871 52.3404 2.57322C61.8766 5.40603 68.2155 11.8015 71.8395 20.9679Z" fill="#F7F8F9"/>
</svg>
