<svg width="64" height="110" viewBox="0 0 64 110" fill="none" xmlns="http://www.w3.org/2000/svg">
<path d="M60.513 20.8382L61.1314 22.8112L61.0572 23.2689L61.453 23.5164C64.44 33.5302 63.704 43.1667 58.435 52.2898C57.9493 52.9909 57.6788 53.8186 57.6569 54.6712C57.6349 55.5239 57.8624 56.3644 58.3114 57.0895C65.6459 70.598 65.1141 83.8529 55.5099 95.8769C45.4048 108.519 31.4592 110.913 16.2644 108.47C12.8631 107.919 9.5112 107.06 6.13458 106.342C3.00533 104.709 -0.470235 102.959 1.42216 98.6354C3.39494 94.1326 7.06219 96.1119 10.3522 97.0582C13.2279 97.887 16.0232 99.223 19.1525 98.7839C30.8284 101.369 42.931 97.2747 49.004 88.2691C55.5841 78.4841 54.5019 68.7177 47.9403 59.3348C45.6769 56.0937 45.6831 53.4527 48.0393 49.9951C59.5854 33.0044 50.513 13.3355 30.1791 10.4594C21.2737 9.22237 13.1351 12.0676 4.78018 14.0654C2.35594 13.1314 0.828423 11.6408 1.06961 8.75848C1.32317 5.52363 3.72269 4.60205 6.19022 3.7052C23.3145 -2.51092 47.3528 -2.60989 60.513 20.8382Z" fill="#383832"/>
<path d="M27.1487 59.5078C37.662 61.5675 42.5599 67.3135 41.5642 76.4985C40.6242 85.1578 33.7349 90.0193 23.2402 89.6049C18.2186 89.407 13.5619 87.7494 8.81853 86.3454C7.73629 85.665 6.63549 85.0217 5.57798 84.2981C3.22796 82.6837 2.92489 80.3828 4.06898 78.0634C5.44807 75.2553 7.94036 74.9708 10.6676 75.9728C16.0541 77.9211 21.2736 80.7725 27.3651 79.0221C30.4573 78.7747 32.3125 77.0799 31.8982 73.975C31.4838 70.87 29.0906 69.8247 26.2396 69.7443C24.304 69.6948 22.3621 69.7938 20.4202 69.8247C17.4951 68.7732 14.7616 67.4558 15.6954 63.6086C16.5056 60.2871 19.3008 59.8975 22.158 59.78C23.7968 59.7181 25.4728 59.6006 27.1487 59.5078Z" fill="#F2F7F9"/>
<path d="M11.521 22.1125C16.5736 21.1661 21.5519 19.7188 26.7961 20.127C36.0726 20.8507 41.8487 26.7328 41.6384 35.4415C41.4529 44.3111 35.8004 49.5685 26.1777 49.8407C24.2482 49.8963 22.3125 49.9272 20.3769 49.9705C15.9366 49.1665 14.9718 46.2038 15.6026 42.2514C18.8494 39.3073 22.9496 40.5691 26.6725 39.9629C29.3255 39.53 31.8611 38.6084 31.892 35.3055C31.892 31.7985 29.4987 30.3573 26.4684 30.1656C23.9391 30.0233 21.354 30.4377 18.8185 30.7841C14.5452 31.3408 11.0448 34.5261 6.5798 34.4952C1.44685 28.4832 1.85501 27.4688 11.521 22.1125Z" fill="#F2F7F9"/>
</svg>
